<svg xmlns="http://www.w3.org/2000/svg" width="512" height="492" viewBox="0 0 512 492" version="1.1"><path d="M 328.883 312 L 318.265 312.500 320.564 322 C 324.394 337.827, 325.337 347.593, 324.691 364.749 C 323.479 396.983, 313.428 423.248, 295.160 441.918 C 284.153 453.166, 272.310 458.994, 256.607 460.889 C 251.194 461.542, 248.128 462.428, 246.848 463.707 C 242.753 467.803, 242.850 475.744, 247.041 479.538 C 251.956 483.985, 270.352 481.767, 284.858 474.979 C 302.593 466.680, 318.908 450.023, 329.913 428.979 C 342.437 405.030, 348.298 375.325, 346.024 347.324 C 345.130 336.305, 342.512 321.108, 340.284 314 L 339.500 311.500 328.883 312 M 57.033 312.750 C 57.093 314.125, 69.383 321.343, 79 325.651 C 98.708 334.479, 117.671 338.301, 141.500 338.249 C 171.312 338.184, 195.914 331.692, 218.610 317.902 L 227.500 312.500 218.500 312.206 C 206.863 311.826, 179.229 312.491, 176 313.229 C 163.104 316.177, 151.908 317.163, 136.707 316.686 C 118.065 316.102, 114.834 315.720, 106.007 313.055 C 102.040 311.857, 56.981 311.577, 57.033 312.750 M 260.552 313.250 C 260.340 313.938, 259.190 317.875, 257.996 322 C 242.377 375.949, 180.696 420.808, 133.206 412.756 C 122.142 410.880, 111.650 406.189, 104.701 400.010 C 98.104 394.145, 92.772 393.445, 87.893 397.804 C 84.945 400.438, 84.500 401.454, 84.500 405.545 C 84.500 409.995, 84.811 410.537, 90.137 415.377 C 112.310 435.526, 145.357 440.323, 180.651 428.517 C 218.770 415.766, 252.652 385.289, 270.516 347.680 C 275.304 337.600, 279.869 323.981, 281.386 315.250 L 281.950 312 271.444 312 C 263.911 312, 260.828 312.354, 260.552 313.250 M 413.170 317.250 C 416.927 326.464, 419.945 337.883, 421.072 347.152 C 423.268 365.212, 418.393 383.843, 408.609 394.786 C 404.449 399.439, 403 402.177, 403 405.387 C 403 411.504, 407.637 416, 413.947 416 C 419.556 416, 429.943 404.160, 435.643 391.272 C 444.240 371.834, 444.684 345.933, 436.844 321.250 L 433.906 312 422.468 312 L 411.029 312 413.170 317.250 M 370.707 330.016 C 366.886 333.021, 365.546 337.977, 367.372 342.348 C 368.922 346.058, 373.275 349.003, 377.200 348.996 C 378.465 348.994, 380.935 348.118, 382.689 347.048 C 388.749 343.353, 388.856 333.814, 382.883 329.631 C 379.664 327.376, 373.828 327.561, 370.707 330.016 M 208.357 338.992 C 205.131 340.293, 203 343.992, 203 348.288 C 203 353.173, 204.309 355.591, 207.980 357.490 C 214.088 360.648, 220.359 358.376, 222.978 352.053 C 224.591 348.159, 223.615 344.461, 220.026 340.872 C 217.033 337.879, 212.802 337.198, 208.357 338.992 M 370.822 380.918 C 362.303 387.642, 367.498 401.135, 378.060 399.719 C 382.897 399.070, 384.857 397.584, 386.704 393.164 C 388.326 389.285, 387.192 384.388, 384.003 381.503 C 380.906 378.700, 374.020 378.394, 370.822 380.918 M 208.357 461.992 C 205.131 463.293, 203 466.992, 203 471.288 C 203 476.173, 204.309 478.591, 207.980 480.490 C 214.088 483.648, 220.359 481.376, 222.978 475.053 C 224.591 471.159, 223.615 467.461, 220.026 463.872 C 217.033 460.879, 212.802 460.198, 208.357 461.992" stroke="none" fill="#7d9afc" fill-rule="evenodd"/><path d="M 239.500 11.477 C 224.005 14.879, 211.978 21.826, 198.934 34.907 C 188.420 45.451, 183.144 52.879, 176.495 66.500 C 166.743 86.480, 163.054 102.460, 162.298 128 C 161.673 149.135, 163.081 161.247, 168.158 178.414 C 177.253 209.169, 197.150 235.767, 219.750 247.381 C 224.836 249.995, 223.869 251.610, 216.368 253.025 C 203.009 255.546, 182.899 252.698, 167.358 246.085 C 150.732 239.009, 138.284 230.402, 123.936 216.060 C 107.527 199.657, 96.481 181.649, 90.409 161.400 C 87.197 150.689, 86.024 131.710, 87.955 121.709 C 89.542 113.489, 94.786 102.754, 100.431 96.168 C 104.200 91.770, 105 90.139, 105 86.853 C 105 84.661, 104.537 82.003, 103.970 80.945 C 102.570 78.327, 97.795 76, 93.826 76 C 87.321 76, 74.607 93.083, 69.637 108.500 C 63.539 127.417, 64.886 153.966, 73.072 176.212 C 90.782 224.335, 136.837 264.304, 185.133 273.466 C 199.588 276.208, 220.736 275.093, 231.436 271.024 C 243.047 266.610, 226.917 287.627, 210.591 298.184 C 203.822 302.561, 196.134 306.373, 187.500 309.631 L 181.500 311.896 204.555 311.948 L 227.611 312 234.193 306.571 C 241.310 300.700, 250.349 289.804, 254.637 281.926 C 259.781 272.475, 261.520 276.635, 261.464 298.250 L 261.429 312 271.589 312 L 281.750 312 282.375 308.875 C 284.196 299.771, 282.323 277.101, 279.047 268.587 C 277.234 263.877, 279.204 263.357, 284.660 267.106 C 296.106 274.970, 304.788 285.479, 312.402 300.684 C 314.931 305.735, 317 310.348, 317 310.934 C 317 311.624, 320.880 312, 328 312 C 336.404 312, 339 311.691, 339 310.690 C 339 309.359, 335.990 301.474, 332.105 292.627 C 329.321 286.286, 319.961 271.956, 314.111 265.078 C 308.548 258.536, 296.570 248.829, 289.878 245.438 C 287.195 244.079, 285 242.350, 285 241.596 C 285 239.334, 296.904 237.651, 308.377 238.290 C 334.964 239.771, 360.698 252.567, 384.075 275.932 C 394.831 286.682, 405.544 300.830, 409.226 309.148 L 410.488 312 421.744 312 C 428.728 312, 433 311.613, 433 310.980 C 433 310.419, 430.918 305.807, 428.373 300.730 C 420.678 285.379, 412.666 274.567, 398.548 260.483 C 375.582 237.570, 352.740 224.857, 324.031 219.006 C 308.502 215.842, 287.646 216.697, 276.587 220.953 C 271.276 222.997, 271.292 220.638, 276.639 213.304 C 290.376 194.461, 317.509 180.224, 347.892 175.918 C 359.574 174.262, 385.948 175.303, 397 177.857 C 434.853 186.602, 461.814 208.758, 467.553 235.837 C 468.330 239.502, 468.973 244.127, 468.983 246.115 C 469.018 253.484, 476.547 258.470, 483.348 255.628 C 489.863 252.906, 491.265 246.786, 488.584 232.775 C 485.772 218.077, 478.911 205.144, 467.554 193.133 C 428.307 151.623, 354.464 141.061, 299 169.024 C 277.688 179.769, 261.293 194.872, 252.619 211.750 C 249.914 217.013, 248.332 215.895, 246.958 207.752 C 242.279 180.008, 255.658 145.170, 281.288 118.360 C 293.328 105.766, 304.885 97.170, 319.500 89.938 C 336.350 81.600, 347.812 78.701, 364 78.682 C 374.976 78.670, 377.455 78.995, 384.328 81.353 C 392.181 84.047, 401.260 89.164, 403.927 92.400 C 406.055 94.982, 410.496 97, 414.050 97 C 418.788 97, 424 91.431, 424 86.369 C 424 82.968, 423.288 81.856, 417.669 76.480 C 394.902 54.699, 354.282 51.260, 316.190 67.889 C 280.053 83.664, 248.418 116.183, 233.960 152.415 C 227.474 168.667, 225.709 177.833, 225.661 195.500 C 225.625 208.795, 225.973 212.768, 227.718 219 C 228.872 223.125, 229.449 226.887, 228.998 227.360 C 227.873 228.542, 219.649 222.749, 212.941 216.051 C 182.367 185.518, 173.832 124.341, 193.825 79.034 C 201.536 61.561, 213.669 46.851, 226.811 39.043 C 234.022 34.759, 246.507 31, 253.525 31 C 258.420 31, 262.119 28.542, 263.978 24.053 C 265.591 20.159, 264.615 16.461, 261.026 12.872 C 258.444 10.291, 257.514 10.008, 251.827 10.079 C 248.347 10.123, 242.800 10.752, 239.500 11.477 M 144.766 53.918 C 141.962 56.423, 141.500 57.496, 141.500 61.500 C 141.500 65.504, 141.962 66.577, 144.766 69.082 C 151.742 75.315, 161.956 70.810, 161.956 61.500 C 161.956 52.190, 151.742 47.685, 144.766 53.918 M 208.357 92.992 C 205.131 94.293, 203 97.992, 203 102.288 C 203 107.173, 204.309 109.591, 207.980 111.490 C 214.088 114.648, 220.359 112.376, 222.978 106.053 C 224.591 102.159, 223.615 98.461, 220.026 94.872 C 217.033 91.879, 212.802 91.198, 208.357 92.992 M 331.388 113.581 C 323.536 117.454, 323.717 128.740, 331.692 132.524 C 335.898 134.520, 339.959 133.768, 343.364 130.364 C 348.575 125.152, 347.148 116.721, 340.522 113.577 C 336.432 111.637, 335.328 111.637, 331.388 113.581 M 452.099 135.747 C 448.156 139.690, 447.304 143.318, 449.326 147.557 C 451.616 152.360, 455.146 154.378, 460.099 153.714 C 464.930 153.066, 467.732 150.782, 468.851 146.581 C 470.682 139.709, 466.788 134.069, 459.660 133.265 C 455.582 132.806, 454.776 133.070, 452.099 135.747 M 127.378 154.437 C 118.326 158.377, 118.998 170.864, 128.430 173.977 C 134.752 176.064, 142 170.735, 142 164 C 142 160.313, 138.983 155.891, 135.466 154.421 C 131.389 152.718, 131.328 152.718, 127.378 154.437 M 62.766 217.918 C 59.962 220.423, 59.500 221.496, 59.500 225.500 C 59.500 229.504, 59.962 230.577, 62.766 233.082 C 66.463 236.385, 70.465 236.845, 75.020 234.490 C 78.650 232.612, 80 230.176, 80 225.500 C 80 220.824, 78.650 218.388, 75.020 216.510 C 70.465 214.155, 66.463 214.615, 62.766 217.918 M 411.822 216.918 C 403.283 223.658, 408.500 237.135, 419.099 235.714 C 421.330 235.414, 424.027 234.380, 425.093 233.416 C 429.171 229.725, 429.185 221.741, 425.121 217.676 C 422.178 214.733, 415.102 214.330, 411.822 216.918 M 24.213 236.495 C 19.377 238.613, 17.645 243.469, 18.534 252.420 C 20.307 270.279, 29.576 288.599, 43.663 302.089 C 55.403 313.332, 52.672 312.545, 78.715 312.182 C 100.701 311.876, 101.342 311.811, 97 310.328 C 81.188 304.928, 67.454 296.347, 56.913 285.281 C 45.983 273.808, 41.082 263.255, 39.448 247.675 C 38.438 238.039, 31.802 233.170, 24.213 236.495 M 250.500 236.945 C 244.288 239.488, 242.441 247.895, 247.076 252.531 C 248.469 253.923, 251.259 255.330, 253.277 255.658 C 256.523 256.184, 257.354 255.846, 260.473 252.727 C 265.220 247.980, 265.257 244.057, 260.600 239.400 C 257.187 235.987, 254.460 235.324, 250.500 236.945 M 84.775 257.559 C 81.323 259.432, 80 261.910, 80 266.500 C 80 271.176, 81.350 273.612, 84.980 275.490 C 89.535 277.845, 93.537 277.385, 97.234 274.082 C 100.038 271.577, 100.500 270.504, 100.500 266.500 C 100.500 262.496, 100.038 261.423, 97.234 258.918 C 93.551 255.627, 89.208 255.153, 84.775 257.559" stroke="none" fill="#3c67fc" fill-rule="evenodd"/></svg>