<?xml version="1.0" encoding="UTF-8"?>
<svg version="1.1" xmlns="http://www.w3.org/2000/svg" width="492" height="492">
<path d="M0 0 C2.69177678 3.69157959 3.59367196 6.44902777 3.1875 11 C1.59667129 14.7677522 -0.34865988 16.88320882 -3.8125 19 C-7.02734375 19.5546875 -7.02734375 19.5546875 -10.75 19.875 C-28.09435656 21.77983487 -42.72297293 30.63666095 -53.8125 44 C-74.81649568 71.41409177 -81.2268224 107.2620943 -76.98950195 140.99731445 C-75.58022069 150.67349813 -73.13920304 159.81670598 -69.8125 169 C-69.44382813 170.04414063 -69.07515625 171.08828125 -68.6953125 172.1640625 C-62.18653546 189.17665904 -49.53618655 207.0757638 -32.8125 215 C-33.245625 213.3603125 -33.245625 213.3603125 -33.6875 211.6875 C-38.21503168 193.33759745 -38.70315446 174.34463875 -33.8125 156 C-33.63509277 155.32404785 -33.45768555 154.6480957 -33.27490234 153.95166016 C-28.28140447 135.56593135 -19.13785874 117.53813288 -6.8125 103 C-5.88969484 101.86664214 -4.96787458 100.73248186 -4.046875 99.59765625 C19.14122988 71.40661199 52.74051824 49.66002415 89.5390625 45.28125 C107.15044941 43.92362703 124.14643401 45.02706661 140.1875 53 C140.97382813 53.38027344 141.76015625 53.76054688 142.5703125 54.15234375 C150.17823546 58.08884744 158.25941233 63.18099898 162.1875 71 C162.74926034 75.41383123 162.48829277 77.45857301 160.3125 81.375 C157.53354721 84.80782404 156.78302986 84.89260937 152.375 85.6875 C147.41032795 85.67156205 144.50278204 83.3445802 140.8125 80.3125 C129.26171864 70.83245629 115.07583027 66.09230675 99.97265625 66.72265625 C65.57384115 70.1480642 36.19462273 87.04071857 13.53515625 113.03125 C-4.61072243 135.97778543 -16.43731601 162.23337073 -14.8125 192 C-14.39814227 195.39942464 -13.97609139 198.76780171 -12.8125 202 C-12.1525 202.33 -11.4925 202.66 -10.8125 203 C-10.40837891 201.91912109 -10.40837891 201.91912109 -9.99609375 200.81640625 C-0.09581796 177.25832425 23.93436997 160.99497905 46.8046875 151.6328125 C86.03122667 136.48988129 129.98001889 137.33704038 168.58203125 153.89453125 C179.10283198 158.60355205 188.46066582 164.4290379 197.1875 172 C198.00734375 172.67546875 198.8271875 173.3509375 199.671875 174.046875 C215.76147791 187.73802779 226.56438727 206.51464927 228.53125 227.703125 C228.95790735 237.90023557 228.95790735 237.90023557 226.1875 241.8125 C222.47789726 244.51741866 219.75729419 245.40242806 215.1875 245 C211.12986447 243.49717203 209.59977506 242.61841259 207.1875 239 C206.7644043 237.10571289 206.7644043 237.10571289 206.51171875 234.97265625 C206.40899658 234.18632812 206.30627441 233.4 206.20043945 232.58984375 C206.09304443 231.75582031 205.98564941 230.92179688 205.875 230.0625 C203.37445019 212.91218291 195.54323828 199.23323714 182.1875 188 C154.20416352 167.26677306 119.40303797 160.43969864 85.10546875 164.49609375 C81.06585461 165.1029047 77.14780499 165.99882198 73.1875 167 C72.49833496 167.16628906 71.80916992 167.33257812 71.09912109 167.50390625 C54.11264812 171.67047241 35.40137935 179.50534204 23.52734375 192.71484375 C22.1875 194 22.1875 194 20.1875 194 C19.80464844 194.82757813 19.80464844 194.82757813 19.4140625 195.671875 C17.99447926 198.36637058 16.32617746 200.76778728 14.5625 203.25 C13.93085938 204.14203125 13.29921875 205.0340625 12.6484375 205.953125 C12.16632813 206.62859375 11.68421875 207.3040625 11.1875 208 C11.5175 208.33 11.8475 208.66 12.1875 209 C13.79489006 208.56948772 15.40056674 208.13167414 16.99755859 207.6640625 C47.0584809 199.16393483 77.68477228 207.5560224 104.35498047 221.97216797 C113.35243381 227.01870122 121.3983712 233.2720306 129.1875 240 C130.1671875 240.84433594 131.146875 241.68867188 132.15625 242.55859375 C159.43645811 266.54879291 178.15389041 300.59248908 181.1875 337 C182.34344368 360.73716912 176.39504289 381.3707765 161.3359375 399.78515625 C158.00089902 403.22327774 156.02775 403.91997619 151.25 404.375 C147.14133449 404.28301495 145.07928251 402.97941228 142.1875 400 C140.32019431 396.26538863 140.20868423 392.96026609 141.1875 389 C143.07946004 386.18004436 145.09408723 383.62619099 147.26098633 381.02148438 C151.54530269 375.79667124 154.05962254 370.42096356 156.1875 364 C156.41953125 363.34 156.6515625 362.68 156.890625 362 C163.4303471 340.32549247 156.55159413 315.98129167 146.2265625 296.65625 C129.76795421 266.80470082 102.7188293 241.23410816 69.6875 231 C67.19640542 230.28051202 64.703416 229.63312611 62.1875 229 C61.26195312 228.75636719 60.33640625 228.51273438 59.3828125 228.26171875 C47.75997204 225.66512673 34.91431264 226.48686288 23.1875 228 C23.1875 228.99 23.1875 229.98 23.1875 231 C24.03957031 231.23847656 24.89164062 231.47695312 25.76953125 231.72265625 C29.56186974 233.13990732 32.6277429 235.07536177 35.875 237.4375 C36.4844043 237.8799707 37.09380859 238.32244141 37.72167969 238.77832031 C65.59552199 259.51249574 79.14055139 292.52441848 84.1875 326 C84.7469716 330.34301684 85.06385105 334.62390227 85.1875 339 C85.22746094 340.21429688 85.26742188 341.42859375 85.30859375 342.6796875 C85.95397228 381.02276499 74.40538487 418.59679991 47.75 446.8125 C32.91957243 460.76434774 15.00239634 469.74490415 -5.4375 470.5625 C-9.3732685 470.4278671 -12.37898761 470.26599344 -15.625 467.9375 C-18.24093493 464.42467309 -18.8125 462.36418555 -18.8125 458 C-17.75641888 453.45885118 -15.66886683 451.51502185 -11.8125 449 C-8.9056781 448.28726256 -5.97437151 448.04352154 -3 447.75 C11.57918126 445.85294991 23.0223079 439.64312156 33.1875 429 C33.86941406 428.32582031 34.55132812 427.65164063 35.25390625 426.95703125 C58.71873575 402.48197426 62.99310267 367.72313548 62.32373047 335.44775391 C62.045625 328.40939296 60.91043967 321.81533797 59.1875 315 C59.02121094 314.31083496 58.85492188 313.62166992 58.68359375 312.91162109 C52.99012416 289.70018906 40.78259295 267.00742713 20.1875 254 C19.1975 254 18.2075 254 17.1875 254 C17.39246094 254.72445313 17.59742188 255.44890625 17.80859375 256.1953125 C18.07800781 257.16210938 18.34742188 258.12890625 18.625 259.125 C19.02525391 260.55199219 19.02525391 260.55199219 19.43359375 262.0078125 C26.83429801 291.38055581 17.93563684 323.20493516 2.921875 348.64453125 C-10.70060155 370.81318413 -28.93939523 389.05153851 -50.8125 403 C-51.69808594 403.56678467 -51.69808594 403.56678467 -52.6015625 404.14501953 C-77.20274696 419.64011488 -108.11183503 427.09422122 -136.9375 421.8125 C-151.34142819 418.4131097 -167.3308985 411.41233737 -176.75 399.5625 C-178.16621167 396.14693067 -178.20542373 393.66728818 -177.8125 390 C-176.16110695 386.4613006 -175.09644771 385.18929847 -171.8125 383 C-166.78694155 382.12252154 -164.27035493 382.07904326 -159.90625 384.8359375 C-157.85267817 386.42904348 -155.81522646 388.04310931 -153.79296875 389.67578125 C-140.14240091 400.32071948 -123.20312233 402.2560648 -106.5 400.4375 C-79.43343798 396.22124905 -55.99713033 382.0732061 -36.8125 363 C-36.10697998 362.30052246 -36.10697998 362.30052246 -35.38720703 361.58691406 C-16.07889417 342.16529733 -0.74678525 314.38976854 -0.67382812 286.48974609 C-0.6805957 285.35013428 -0.6805957 285.35013428 -0.6875 284.1875 C-0.68943359 283.39939941 -0.69136719 282.61129883 -0.69335938 281.79931641 C-0.73524294 276.1438718 -1.08818465 270.61344394 -1.8125 265 C-2.8025 265 -3.7925 265 -4.8125 265 C-4.998125 265.78375 -5.18375 266.5675 -5.375 267.375 C-14.25046564 289.75660901 -38.03059056 305.74221843 -59.25390625 315.1484375 C-95.93631173 330.55744796 -139.35557545 331.4390814 -176.5625 317.25 C-189.67423124 311.6347898 -201.7504343 305.05538 -212.8125 296 C-213.864375 295.19369141 -213.864375 295.19369141 -214.9375 294.37109375 C-228.99891128 283.05959556 -239.25240872 265.61631375 -242.8125 248 C-243.039375 247.01 -243.26625 246.02 -243.5 245 C-244.71961806 233.29166667 -244.71961806 233.29166667 -242.625 228 C-240.41454175 225.56087365 -238.89282907 224.23213163 -235.8125 223 C-230.9597852 223 -229.05163663 223.06882527 -225.15625 225.99609375 C-222.05618821 229.96933961 -221.80672002 233.15656838 -221.3125 238.0625 C-218.99714042 255.58760656 -210.57146279 269.51696549 -196.75390625 280.66015625 C-183.49507577 290.47571541 -168.74257964 296.96961932 -152.8125 301 C-152.11141113 301.17789062 -151.41032227 301.35578125 -150.68798828 301.5390625 C-119.57859665 308.97521777 -83.03330303 304.47984772 -55.3046875 288.21484375 C-44.18197994 281.31701641 -34.73584166 273.2304897 -27.8125 262 C-27.8125 261.01 -27.8125 260.02 -27.8125 259 C-29.28396484 259.41572266 -29.28396484 259.41572266 -30.78515625 259.83984375 C-62.49705237 268.49250817 -93.63694686 261.08132986 -121.8125 245 C-130.72957221 239.56823866 -138.86291882 233.45579583 -146.4296875 226.26171875 C-148.53628451 224.26217831 -150.69907892 222.41029465 -152.9375 220.5625 C-177.37708462 199.20270044 -193.27853999 164.84516553 -196.5625 132.9375 C-196.66436767 131.29270981 -196.74958467 129.64674025 -196.8125 128 C-196.87244141 126.95972656 -196.87244141 126.95972656 -196.93359375 125.8984375 C-197.57568829 105.72911504 -191.4108349 85.53116816 -178.625 69.8125 C-174.82803532 66.01553532 -172.21829465 63.88644275 -166.8125 63.5625 C-163.83081192 63.69751984 -162.66294757 64.0812785 -159.9375 65.5625 C-157.19635207 68.70675792 -156.37347198 70.86283165 -155.8125 75 C-157.13029587 79.89467038 -159.66079885 83.21439846 -162.6875 87.25 C-174.12146192 102.59336802 -175.7080273 119.83830445 -173.52392578 138.46044922 C-171.77687065 149.28750096 -167.62315331 159.20989852 -162.8125 169 C-162.33941406 169.97453125 -161.86632812 170.9490625 -161.37890625 171.953125 C-145.50390056 202.71375926 -117.38264196 225.84436768 -84.8125 237 C-75.75596788 239.68536708 -66.94344105 241.18482947 -57.5 241.125 C-56.38830444 241.12209961 -56.38830444 241.12209961 -55.25415039 241.11914062 C-49.72013552 241.07568452 -44.30629668 240.69762498 -38.8125 240 C-38.8125 239.01 -38.8125 238.02 -38.8125 237 C-39.89337891 236.59587891 -39.89337891 236.59587891 -40.99609375 236.18359375 C-64.57526343 226.27445587 -80.95282021 201.96589425 -90.38476562 179.1574707 C-104.93063398 141.67499398 -104.62932594 96.9567821 -88.70751953 59.984375 C-83.63493603 48.73779598 -77.70963325 38.5087931 -69.8125 29 C-68.67554688 27.60007812 -68.67554688 27.60007812 -67.515625 26.171875 C-55.33008292 11.91558721 -19.6896961 -13.79681793 0 0 Z M-15.8125 228 C-17.68765219 232.05032874 -18.14431438 233.98503837 -16.75 238.25 C-14.61183623 241.2848131 -13.26123386 242.63654708 -9.8125 244 C-6.18162563 243.92435678 -4.14250303 243.19066842 -1 241.375 C1.89698584 238.22970109 2.1875 236.24052072 2.1875 232 C0.4783864 227.82216676 -1.74359618 225.88558958 -5.8125 224 C-10.64989595 224 -12.15982497 224.90316683 -15.8125 228 Z " fill="#5278FC" transform="translate(251.8125,12)"/>
<path d="M0 0 C3.06471302 1.65023009 5.30778907 3.056076 7.375 5.875 C8.69601084 10.36643685 8.48383625 13.10144696 6.25 17.25 C3.2772789 20.88332579 1.72224085 21.77535989 -2.875 22.375 C-6.90106566 21.89187212 -8.91157177 20.59708738 -12 18 C-13.91303463 14.9225095 -14.00253398 13.14190292 -13.9375 9.5 C-12.82276962 5.33833993 -11.28026327 3.72021832 -8 1 C-5.13391871 -0.43304064 -3.18699217 -0.30644155 0 0 Z " fill="#3D69FD" transform="translate(329,112)"/>
<path d="M0 0 C2.875 1.5 2.875 1.5 5 4 C6.28554109 8.24545978 6.49789294 11.72760692 4.875 15.875 C2.64735225 18.39966745 1.14683047 19.74126781 -2 21 C-6.78842489 21 -8.98903462 20.65291514 -13 18.0625 C-15.82314376 13.73956111 -16.04817544 10.02629009 -15 5 C-10.60407717 -0.82162753 -6.95827892 -1.55961424 0 0 Z " fill="#466FFD" transform="translate(126,154)"/>
<path d="M0 0 C3.07204549 2.00623379 4.45581618 3.42251475 5.65625 6.90234375 C6.44866765 10.87205139 6.16415357 12.67169286 4.3125 16.375 C1.66525923 19.37997601 -0.17493235 20.87468726 -4.21875 21.15234375 C-8.19692192 20.77768715 -10.38839904 20.51986082 -13.5 17.875 C-15.31462868 14.39696169 -15.93105717 11.92974122 -16 8 C-12.94434007 -0.09749882 -8.03971305 -1.21813834 0 0 Z " fill="#7493FB" transform="translate(372,328)"/>
<path d="M0 0 C3.26250137 1.89818262 5.38735287 3.29284844 6.6953125 6.9375 C7.3176423 10.43313973 7.20722094 12.50921357 5.8125 15.8125 C2.64448456 19.63596691 1.20643515 20.84433095 -3.875 21.5 C-7.25632262 21.3483145 -8.32708423 20.80969645 -11.4375 19 C-14.2055301 15.7593794 -14.95307689 14.07513109 -15.171875 9.92578125 C-14.82741841 6.06630171 -12.85585578 3.91925251 -10.3125 1.1875 C-6.87570186 -0.57734229 -3.72071524 -0.74271475 0 0 Z " fill="#829DFA" transform="translate(371,379)"/>
<path d="M0 0 C3.26250137 1.89818262 5.38735287 3.29284844 6.6953125 6.9375 C7.3176423 10.43313973 7.20722094 12.50921357 5.8125 15.8125 C2.64448456 19.63596691 1.20643515 20.84433095 -3.875 21.5 C-7.25632262 21.3483145 -8.32708423 20.80969645 -11.4375 19 C-14.2055301 15.7593794 -14.95307689 14.07513109 -15.171875 9.92578125 C-14.82741841 6.06630171 -12.85585578 3.91925251 -10.3125 1.1875 C-6.87570186 -0.57734229 -3.72071524 -0.74271475 0 0 Z " fill="#557BFC" transform="translate(412,215)"/>
<path d="M0 0 C3.67552256 1.99756661 4.77375004 3.50036467 6.5 7.3125 C7.12063564 11.88968787 6.29065944 14.02952363 4 18 C1.41999955 20.96222274 0.05145998 20.99509905 -3.9375 21.375 C-7.67662422 21.22181428 -10.05560902 20.42479257 -13 18 C-15.56632517 14.57823311 -15.36435051 11.15359579 -15 7 C-13.76043745 4.21098427 -12.71549246 2.55649413 -10.3125 0.6875 C-6.83807227 -0.34543797 -3.55912322 -0.55898754 0 0 Z " fill="#557BFC" transform="translate(64,215)"/>
<path d="M0 0 C2.87472735 1.24988145 4.44101438 2.25468584 6.3125 4.75 C7.63189267 9.06801237 7.58520303 12.68329318 5.75 16.8125 C3.81803152 19.2274606 2.95224902 20.12230435 0 21 C-6.96132597 21.66298343 -6.96132597 21.66298343 -10.9375 19.125 C-14.34325286 15.6160425 -14.33097275 12.98181561 -14.29296875 8.26171875 C-13.86344199 4.9457722 -12.39075646 3.25012373 -10 1 C-6.80621918 -0.59689041 -3.47478685 -0.37348957 0 0 Z " fill="#5C80FC" transform="translate(84,256)"/>
<path d="M0 0 C2.8100346 1.79363911 4.50940468 3.01880935 6 6 C6.55512815 10.63213493 6.6364242 13.98172127 4.125 18 C0.82503465 21.10584974 -1.43879268 21.28446399 -5.96484375 21.21875 C-8.93774757 20.89920564 -10.70998159 19.88589752 -13 18 C-15.56632517 14.57823311 -15.36435051 11.15359579 -15 7 C-13.76043745 4.21098427 -12.71549246 2.55649413 -10.3125 0.6875 C-6.84767407 -0.34258338 -3.54883321 -0.5914722 0 0 Z " fill="#2858FE" transform="translate(146,51)"/>
<path d="M0 0 C2.79987689 1.35477914 3.85920578 2.54591882 6 5 C7.04002166 8.64007581 7.23030472 11.00968968 6.375 14.6875 C4.57072503 17.72196245 3.06048212 19.20363006 0 21 C-5.10576877 21.72939554 -6.96110202 21.60444974 -11.4375 19 C-14.2055301 15.7593794 -14.95307689 14.07513109 -15.171875 9.92578125 C-14.82741841 6.06630171 -12.85585578 3.91925251 -10.3125 1.1875 C-6.87831769 -0.57599902 -3.71810385 -0.74932995 0 0 Z " fill="#3E69FD" transform="translate(453,133)"/>
<path d="M0 0 C3.02508145 1.73602105 5.41790069 3.83580137 7 7 C7.2262475 12.0069555 6.69507747 15.16929766 3.4375 19.0625 C-1.03699068 21.58448566 -2.93088294 21.72415958 -8 21 C-11.09251553 19.18482784 -12.58688714 17.71355858 -14.375 14.625 C-15.16443985 11.30935265 -14.95479302 9.27357609 -14 6 C-10.16760047 0.43683939 -6.7851233 -1.15812865 0 0 Z " fill="#97AEF9" transform="translate(207,461)"/>
<path d="M0 0 C3.24660489 1.88893375 5.37228213 3.28259212 6.6953125 6.90234375 C7.55868054 11.68760701 6.81282813 14.92624891 4 19 C1.04911741 21.40442285 -2.29457255 21.42089183 -6.03515625 21.31640625 C-9.24330151 20.79978644 -10.84118317 19.34930067 -13 17 C-14.69932147 14.06480836 -15.01645196 12.39484713 -14.875 9 C-13.86530833 5.5382 -12.46052585 3.60964863 -10 1 C-6.75796421 -0.62101789 -3.50394545 -0.55907107 0 0 Z " fill="#3260FE" transform="translate(207,92)"/>
<path d="M0 0 C3.26250137 1.89818262 5.38735287 3.29284844 6.6953125 6.9375 C7.3176423 10.43313973 7.20722094 12.50921357 5.8125 15.8125 C2.61405261 19.67269512 1.21358974 20.8651567 -3.9375 21.4375 C-7.02759082 21.3109041 -8.09298311 20.94542296 -10.875 19.3125 C-13.99949266 15.91231681 -15.06838161 13.64115861 -14.875 9 C-13.86530833 5.5382 -12.46052585 3.60964863 -10 1 C-6.75796421 -0.62101789 -3.50394545 -0.55907107 0 0 Z " fill="#7594FB" transform="translate(207,338)"/>
<path d="M0 0 C0.66 0.33 1.32 0.66 2 1 C-5.26 8.26 -12.52 15.52 -20 23 C-20.66 22.67 -21.32 22.34 -22 22 C-6.93673978 5.53646622 -6.93673978 5.53646622 0 0 Z " fill="#7896FE" transform="translate(270,89)"/>
<path d="M0 0 C0.66 0.33 1.32 0.66 2 1 C-4.27 7.27 -10.54 13.54 -17 20 C-17.66 19.67 -18.32 19.34 -19 19 C-12.98348207 12.26459665 -7.02537494 5.71692402 0 0 Z " fill="#829EFD" transform="translate(269,180)"/>
<path d="M0 0 C0.66 0.33 1.32 0.66 2 1 C-3.28 6.28 -8.56 11.56 -14 17 C-14.66 16.67 -15.32 16.34 -16 16 C-14.27538679 14.07906479 -12.54557391 12.163278 -10.8125 10.25 C-10.32974609 9.71117187 -9.84699219 9.17234375 -9.34960938 8.6171875 C-6.43837795 5.41287909 -3.47293499 2.6158121 0 0 Z " fill="#7090FE" transform="translate(197,26)"/>
<path d="M0 0 C0 0.33 0 0.66 0 1 C-1.5778125 1.0928125 -1.5778125 1.0928125 -3.1875 1.1875 C-8.77781182 2.37887793 -10.92212649 5.38318974 -14 10 C-13.74919159 6.32147666 -13.38558753 4.44400988 -10.9375 1.625 C-6.98286986 -0.56266774 -4.47232658 -0.30320858 0 0 Z " fill="#92AAFC" transform="translate(84,256)"/>
<path d="M0 0 C1.21236328 0.02707031 1.21236328 0.02707031 2.44921875 0.0546875 C3.37154297 0.08949219 3.37154297 0.08949219 4.3125 0.125 C4.3125 0.455 4.3125 0.785 4.3125 1.125 C2.518125 1.2178125 2.518125 1.2178125 0.6875 1.3125 C-4.09480383 1.87412287 -6.29257231 3.81494551 -9.6875 7.125 C-7.82206758 1.67219755 -5.82891046 -0.16895393 0 0 Z " fill="#B7C7FC" transform="translate(84.6875,394.875)"/>
</svg>
